# xmcd CD database file
#
# Track frame offsets:
#	150
#	25653
#	47006
#	78637
#	103344
#	126032
#	148907
#	168168
#	186969
#
# Disc length: 2780 seconds
#
# Revision: 0
# Processed by: cddbd v1.5.2PL0 Copyright (c) Steve Scherf et al.
# Submitted via: CDex 1.70beta2
#
DISCID=790ada09
DTITLE=Miles for Monty Orchestra - Music for Humans
DYEAR=2004
DGENRE=Jazz
TTITLE0=Fruit Rope
TTITLE1=A Mahavishnu
TTITLE2=Borghest
TTITLE3=Spanish Rope
TTITLE4=The new Heavy Tango
TTITLE5=The Private Publis Leggee
TTITLE6=Who's Parrott?
TTITLE7=Ledzeppdid
TTITLE8=C Loco Dance
EXTD=YEAR: 2004
EXTT0=
EXTT1=
EXTT2=
EXTT3=
EXTT4=
EXTT5=
EXTT6=
EXTT7=
EXTT8=
PLAYORDER=
